<svg xmlns="http://www.w3.org/2000/svg" width="400" height="400" id="checklist">
  <path fill="#2A94F4" d="M318.742 78.577v277.155c0 9.327-7.559 16.896-16.897 16.896H61.785c-9.35 0-16.897-7.569-16.897-16.896V78.577c0-9.327 7.547-16.896 16.897-16.896h240.06c9.339 0 16.897 7.569 16.897 16.896z"></path>
  <path fill="#F7F7F7" d="M303.37 94.135v246.04c0 8.28-6.71 15-15 15H75.26c-8.3 0-15-6.72-15-15V94.135c0-8.28 6.7-15 15-15h213.11c8.29 0 15 6.719 15 15z"></path>
  <path fill="#0B4870" d="M226.831 51.721h-6.14v-18.08c0-3.46-2.8-6.27-6.271-6.27H149.2c-3.47 0-6.27 2.81-6.27 6.27v18.08h-6.14c-4.79 0-8.65 3.88-8.65 8.66v26.11h107.34v-26.11c.001-4.78-3.869-8.66-8.649-8.66zm-19.019-5.361h-51.99v-7.39c0-2.76 2.24-4.99 5-4.99h41.99c2.76 0 5 2.23 5 4.99v7.39z"></path>
  <path fill="#FFBE55" d="M116.608 132.621v13.172a4.363 4.363 0 0 1-4.363 4.361H93.906a4.36 4.36 0 0 1-4.363-4.361v-13.172a4.361 4.361 0 0 1 4.363-4.363h18.339a4.363 4.363 0 0 1 4.363 4.363z"></path>
  <path fill="#D3D3D3" d="M209.697 163.016c0 3.959-3.221 7.18-7.19 7.18h-67.77a7.181 7.181 0 0 1-7.18-7.18c0-1.99.8-3.781 2.1-5.08a7.16 7.16 0 0 1 5.08-2.1h67.77c3.97 0 7.19 3.209 7.19 7.18zm64.39-27.571c0 3.959-3.221 7.18-7.19 7.18h-132.16a7.181 7.181 0 0 1-7.18-7.18c0-1.98.8-3.779 2.1-5.08s3.1-2.109 5.08-2.109h132.16a7.191 7.191 0 0 1 7.19 7.189z"></path>
  <path fill="#FFBE55" d="M116.608 200.551v13.172a4.363 4.363 0 0 1-4.363 4.361H93.906a4.36 4.36 0 0 1-4.363-4.361v-13.172a4.361 4.361 0 0 1 4.363-4.363h18.339a4.363 4.363 0 0 1 4.363 4.363z"></path>
  <path fill="#D3D3D3" d="M209.697 230.945c0 3.959-3.221 7.18-7.19 7.18h-67.77a7.181 7.181 0 0 1-7.18-7.18c0-1.99.8-3.781 2.1-5.08a7.16 7.16 0 0 1 5.08-2.1h67.77c3.97.001 7.19 3.21 7.19 7.18zm64.39-27.57c0 3.959-3.221 7.18-7.19 7.18h-132.16a7.181 7.181 0 0 1-7.18-7.18c0-1.98.8-3.779 2.1-5.08s3.1-2.109 5.08-2.109h132.16a7.19 7.19 0 0 1 7.19 7.189z"></path>
  <path fill="#FFBE55" d="M116.608 268.48v13.172a4.363 4.363 0 0 1-4.363 4.361H93.906a4.36 4.36 0 0 1-4.363-4.361V268.48a4.361 4.361 0 0 1 4.363-4.363h18.339a4.363 4.363 0 0 1 4.363 4.363z"></path>
  <path fill="#D3D3D3" d="M209.697 298.875c0 3.959-3.221 7.18-7.19 7.18h-67.77a7.181 7.181 0 0 1-7.18-7.18c0-1.99.8-3.781 2.1-5.08a7.16 7.16 0 0 1 5.08-2.1h67.77c3.97 0 7.19 3.209 7.19 7.18zm64.39-27.57c0 3.959-3.221 7.18-7.19 7.18h-132.16a7.181 7.181 0 0 1-7.18-7.18c0-1.98.8-3.779 2.1-5.08s3.1-2.109 5.08-2.109h132.16a7.19 7.19 0 0 1 7.19 7.189z"></path>
  <path fill="#FFBE55" d="M349.36 156.459V292.64c0 7.584 6.206 9.653 13.791 9.653 7.584 0 13.79-2.069 13.79-9.653V156.459H349.36z"></path>
  <path fill="#2A94F4" d="M376.941 153.012v-13.446c0-7.585-6.206-9.653-13.79-9.653-7.585 0-13.791 2.068-13.791 9.653v13.446h27.581z"></path>
  <path fill="#FFE3CA" d="m349.36 296.432 13.791 25.512 13.79-25.512z"></path>
  <path fill="#0B4870" d="m357.29 310.567 5.861 11.377 5.861-11.377z"></path>
  <path fill="#D3D3D3" d="M349.36 153.012h27.581v3.447H349.36z"></path>
</svg>
